<svg width="25" height="24" viewBox="0 0 25 24" fill="none" xmlns="http://www.w3.org/2000/svg">
<path opacity="0.7" d="M23.62 2.71477e-08H1.37878C0.617218 0.000439482 -0.00015256 0.593408 2.82789e-08 1.3248V22.6764C0.000457794 23.4075 0.618134 24.0001 1.38 24H13.3545V14.7188H10.1074V11.0859H13.3545V8.41245C13.3545 5.31211 15.3261 3.62461 18.2069 3.62461C19.5868 3.62461 20.7726 3.72334 21.1182 3.76743V7.00781H19.1316C17.5642 7.00781 17.2607 7.7228 17.2607 8.77222V11.0859H21.0083L20.52 14.7188H17.2607V24H23.62C24.382 24.0001 24.9998 23.4073 25 22.6758C25 22.6756 25 22.6755 25 22.6752V1.32363C24.9997 0.592529 24.3819 -0.000146457 23.62 2.71477e-08Z" fill="white"/>
</svg>
