<svg width="21" height="21" viewBox="0 0 21 21" fill="none" xmlns="http://www.w3.org/2000/svg">
<path opacity="0.5" d="M19.8408 0.0476227H1.15818C0.518463 0.0479889 -0.00012815 0.54213 2.37542e-08 1.15163V18.9446C0.000384547 19.5538 0.519232 20.0477 1.1592 20.0476H11.2178V12.3132H8.49023V9.2859H11.2178V7.058C11.2178 4.47438 12.8739 3.06813 15.2938 3.06813C16.4529 3.06813 17.4489 3.15041 17.7393 3.18715V5.88747H16.0706C14.754 5.88747 14.499 6.48329 14.499 7.3578V9.2859H17.647L17.2368 12.3132H14.499V20.0476H19.8408C20.4809 20.0477 20.9999 19.5537 21 18.9441C21 18.944 21 18.9439 21 18.9436V1.15065C20.9997 0.541397 20.4808 0.0475006 19.8408 0.0476227Z" fill="#592680"/>
</svg>
