<svg width="22" height="22" viewBox="0 0 22 22" fill="none" xmlns="http://www.w3.org/2000/svg">
<g opacity="0.5" clip-path="url(#clip0)">
<path d="M21.028 6.22168C20.9788 5.10587 20.7984 4.33876 20.5399 3.67405C20.2732 2.96847 19.863 2.33677 19.3255 1.81164C18.8004 1.27833 18.1645 0.863929 17.4671 0.601442C16.7986 0.342961 16.0355 0.162521 14.9196 0.113325C13.7955 0.0599618 13.4386 0.0476227 10.5875 0.0476227C7.73635 0.0476227 7.37948 0.0599618 6.2595 0.109158C5.14369 0.158354 4.37658 0.338955 3.71203 0.597275C3.0063 0.863929 2.3746 1.27417 1.84946 1.81164C1.31616 2.33677 0.901915 2.97264 0.639268 3.67004C0.380787 4.33876 0.200347 5.1017 0.151151 6.21751C0.0977883 7.34166 0.0854492 7.69853 0.0854492 10.5497C0.0854492 13.4008 0.0977883 13.7577 0.146985 14.8777C0.196181 15.9935 0.376781 16.7606 0.635262 17.4253C0.901915 18.1309 1.31616 18.7626 1.84946 19.2877C2.3746 19.821 3.01046 20.2354 3.70786 20.4979C4.37658 20.7564 5.13952 20.9368 6.25549 20.986C7.37531 21.0354 7.73234 21.0476 10.5835 21.0476C13.4346 21.0476 13.7915 21.0354 14.9115 20.986C16.0273 20.9368 16.7944 20.7564 17.4589 20.4979C18.8703 19.9523 19.9861 18.8364 20.5317 17.4253C20.79 16.7566 20.9706 15.9935 21.0198 14.8777C21.069 13.7577 21.0814 13.4008 21.0814 10.5497C21.0814 7.69853 21.0772 7.34166 21.028 6.22168ZM19.1369 14.7956C19.0917 15.8212 18.9194 16.375 18.7759 16.7442C18.423 17.6591 17.6969 18.3852 16.7821 18.7381C16.4128 18.8816 15.855 19.0539 14.8334 19.0989C13.7258 19.1483 13.3936 19.1605 10.5917 19.1605C7.78971 19.1605 7.45335 19.1483 6.34972 19.0989C5.32413 19.0539 4.77031 18.8816 4.4011 18.7381C3.94583 18.5698 3.53143 18.3031 3.19507 17.9544C2.84637 17.6139 2.57972 17.2037 2.41146 16.7484C2.26787 16.3792 2.09561 15.8212 2.05058 14.7998C2.00122 13.6921 1.98904 13.3598 1.98904 10.5578C1.98904 7.7559 2.00122 7.41954 2.05058 6.31607C2.09561 5.29048 2.26787 4.73666 2.41146 4.36744C2.57972 3.91202 2.84637 3.49777 3.19924 3.16125C3.5396 2.81255 3.94984 2.5459 4.40527 2.3778C4.77448 2.23421 5.33246 2.06195 6.35389 2.01676C7.46152 1.96756 7.79388 1.95522 10.5957 1.95522C13.4018 1.95522 13.734 1.96756 14.8376 2.01676C15.8632 2.06195 16.417 2.23421 16.7862 2.3778C17.2415 2.5459 17.6559 2.81255 17.9922 3.16125C18.341 3.50178 18.6076 3.91202 18.7759 4.36744C18.9194 4.73666 19.0917 5.29448 19.1369 6.31607C19.1861 7.4237 19.1984 7.7559 19.1984 10.5578C19.1984 13.3598 19.1861 13.688 19.1369 14.7956Z" fill="#592680"/>
<path d="M10.5865 5.15506C7.60828 5.15506 5.19189 7.57129 5.19189 10.5497C5.19189 13.528 7.60828 15.9443 10.5865 15.9443C13.5649 15.9443 15.9811 13.528 15.9811 10.5497C15.9811 7.57129 13.5649 5.15506 10.5865 5.15506ZM10.5865 14.049C8.65438 14.049 7.08715 12.4819 7.08715 10.5497C7.08715 8.61739 8.65438 7.05032 10.5865 7.05032C12.5188 7.05032 14.0858 8.61739 14.0858 10.5497C14.0858 12.4819 12.5188 14.049 10.5865 14.049Z" fill="#592680"/>
<path d="M17.454 4.94177C17.454 5.63725 16.8901 6.20116 16.1945 6.20116C15.499 6.20116 14.9351 5.63725 14.9351 4.94177C14.9351 4.24613 15.499 3.68237 16.1945 3.68237C16.8901 3.68237 17.454 4.24613 17.454 4.94177Z" fill="#592680"/>
</g>
<defs>
<clipPath id="clip0">
<rect width="21" height="21" fill="white" transform="translate(0.0476074 0.0476227)"/>
</clipPath>
</defs>
</svg>
