<svg width="14" height="14" viewBox="0 0 14 14" fill="none" xmlns="http://www.w3.org/2000/svg">
<path d="M5.79729 8.20279C4.46102 6.86651 4.15929 5.53024 4.09122 4.99486C4.0722 4.84683 4.12315 4.69837 4.22905 4.5932L5.31043 3.51231C5.4695 3.35333 5.49773 3.10558 5.3785 2.91489L3.65674 0.241376C3.52483 0.0302296 3.25399 -0.0459754 3.03133 0.0654109L0.267294 1.36717C0.0872392 1.45583 -0.0186665 1.64713 0.00177672 1.84679C0.146604 3.22265 0.746432 6.60486 4.07022 9.92889C7.39402 13.2529 10.7757 13.8525 12.1523 13.9973C12.352 14.0178 12.5433 13.9119 12.6319 13.7318L13.9337 10.9678C14.0447 10.7456 13.969 10.4755 13.7587 10.3433L11.0852 8.62207C10.8946 8.50271 10.6469 8.53074 10.4878 8.68965L9.40688 9.77103C9.30171 9.87694 9.15326 9.92788 9.00522 9.90886C8.46985 9.84079 7.13357 9.53907 5.79729 8.20279Z" fill="#747474"/>
<path d="M11.1035 7.48277C10.8369 7.48277 10.6208 7.26663 10.6208 7.00001C10.6185 5.00129 8.99881 3.38158 7.00009 3.37931C6.73347 3.37931 6.51733 3.16318 6.51733 2.89655C6.51733 2.62993 6.73347 2.4138 7.00009 2.4138C9.53183 2.41659 11.5835 4.46827 11.5863 7.00001C11.5863 7.26663 11.3702 7.48277 11.1035 7.48277Z" fill="#747474"/>
<path d="M13.5173 7.48276C13.2507 7.48276 13.0346 7.26662 13.0346 7C13.0309 3.66879 10.3313 0.969242 7.00009 0.965517C6.73347 0.965517 6.51733 0.749379 6.51733 0.482759C6.51733 0.216138 6.73347 0 7.00009 0C10.8643 0.00425693 13.9958 3.13577 14.0001 7C14.0001 7.12804 13.9492 7.25083 13.8587 7.34136C13.7682 7.4319 13.6454 7.48276 13.5173 7.48276Z" fill="#747474"/>
</svg>
