<svg width="32" height="22" viewBox="0 0 32 22" fill="none" xmlns="http://www.w3.org/2000/svg">
<path opacity="0.7" d="M31.447 3.53896C31.0553 1.86036 29.6633 0.621927 27.9876 0.437189C24.0194 0.000269086 20.003 -0.00201151 16.0051 0.000269204C12.0066 -0.00201151 7.98951 0.000269086 4.02135 0.437189C2.34661 0.621927 0.955623 1.86036 0.563861 3.53896C0.00627615 5.92948 0 8.53894 0 11.0002C0 13.4614 0 16.0705 0.557585 18.4607C0.948686 20.139 2.34001 21.3774 4.01573 21.5625C7.98357 21.9997 12.0003 22.002 15.9988 21.9997C19.9981 22.002 24.0138 21.9997 27.9813 21.5625C29.656 21.3778 31.0483 20.1393 31.4401 18.4607C31.998 16.0702 32 13.4611 32 11.0002C32 8.53894 32.0046 5.92948 31.447 3.53896ZM11.8705 15.8991C11.8705 12.4077 11.8705 8.95273 11.8705 5.46096C15.2619 7.20636 18.6309 8.94003 22.0437 10.6962C18.6414 12.4367 15.2708 14.1599 11.8705 15.8991Z" fill="white"/>
</svg>
