<svg width="28" height="20" viewBox="0 0 28 20" fill="none" xmlns="http://www.w3.org/2000/svg">
<path opacity="0.5" d="M26.8032 3.97702C26.4727 2.52731 25.2982 1.45776 23.8843 1.29821C20.5361 0.920871 17.1473 0.918902 13.7741 0.920872C10.4003 0.918902 7.01093 0.920871 3.66279 1.29821C2.24973 1.45776 1.07608 2.52731 0.745533 3.97702C0.275071 6.04155 0.269775 8.29518 0.269775 10.4208C0.269775 12.5464 0.269775 14.7997 0.740237 16.864C1.07023 18.3134 2.24415 19.383 3.65805 19.5428C7.00591 19.9204 10.395 19.9224 13.7688 19.9204C17.1431 19.9224 20.5314 19.9204 23.879 19.5428C25.2921 19.3832 26.4668 18.3137 26.7974 16.864C27.2681 14.7994 27.2698 12.5461 27.2698 10.4208C27.2698 8.29518 27.2737 6.04155 26.8032 3.97702ZM10.2855 14.6517C10.2855 11.6364 10.2855 8.65254 10.2855 5.63692C13.147 7.14431 15.9896 8.64157 18.8692 10.1582C15.9985 11.6614 13.1545 13.1497 10.2855 14.6517Z" fill="#592680"/>
</svg>
